<svg xmlns="http://www.w3.org/2000/svg" width="124" height="124" viewBox="0 0 124 124">
  <g id="Group_14123" data-name="Group 14123" transform="translate(-266 -1868)">
    <circle id="Ellipse_10" data-name="Ellipse 10" cx="62" cy="62" r="62" transform="translate(266 1868)" fill="#fefefe"/>
    <g id="Layer_45" data-name="Layer 45" transform="translate(296 1896.929)">
      <path id="Path_1136" data-name="Path 1136" d="M31,57.93V47.03a44.34,44.34,0,0,0-9.86,1.29C23.59,53.89,27.19,57.4,31,57.93Z" fill="#0504a5"/>
      <path id="Path_1137" data-name="Path 1137" d="M60,38V26a1,1,0,0,0-1-1H5a1,1,0,0,0-1,1V38a1,1,0,0,0,1,1H36.44l.32-3.82a1.012,1.012,0,0,1,.5-.79,1,1,0,0,1,.92-.04l3.83,1.81-1.98-7.92a1,1,0,0,1,1.94-.48l1.34,5.37,1.8-3.58a1.039,1.039,0,0,1,1.78,0l1.8,3.58,1.34-5.37a1,1,0,0,1,1.94.48l-2,8a.979.979,0,0,1-.86.75A.41.41,0,0,1,49,37a.988.988,0,0,1-.89-.55L46,32.24l-2.11,4.21a.912.912,0,0,1-.39.41L48.03,39H59A1,1,0,0,0,60,38ZM23.97,28.243l-2,8a1,1,0,0,1-1.865.2L18,32.236l-2.1,4.211a1,1,0,0,1-1.865-.2l-2-8a1,1,0,1,1,1.94-.486l1.344,5.378,1.791-3.582a1.042,1.042,0,0,1,1.79,0l1.791,3.582,1.344-5.378a1,1,0,1,1,1.94.486Zm14,0-2,8a1,1,0,0,1-1.865.2L32,32.236l-2.1,4.211a1,1,0,0,1-1.865-.2l-2-8a1,1,0,1,1,1.94-.486l1.344,5.378,1.791-3.582a1.042,1.042,0,0,1,1.79,0l1.791,3.582,1.344-5.378a1,1,0,1,1,1.94.486Z" fill="#0504a5"/>
      <path id="Path_1138" data-name="Path 1138" d="M19.2,48.86a30.165,30.165,0,0,0-5.06,2.03,25.764,25.764,0,0,0,10.51,6.05,22.769,22.769,0,0,1-5.45-8.08Z" fill="#0504a5"/>
      <path id="Path_1139" data-name="Path 1139" d="M7.6,41a25.878,25.878,0,0,0,5.1,8.4,31.53,31.53,0,0,1,5.77-2.41A39.743,39.743,0,0,1,16.86,41Z" fill="#0504a5"/>
      <path id="Path_1140" data-name="Path 1140" d="M54.05,41.84a1,1,0,0,1-.08,1.84L49.38,45.4l2.16,3.74A26.018,26.018,0,0,0,56.4,41H52.28Z" fill="#0504a5"/>
      <path id="Path_1141" data-name="Path 1141" d="M53.56,56.63l-6.5-11.25a1.032,1.032,0,0,1-.07-.84.975.975,0,0,1,.59-.6l3.48-1.3L38.63,36.78,37.5,50.46l2.86-2.36a1.055,1.055,0,0,1,.64-.22,1.087,1.087,0,0,1,.18.01.994.994,0,0,1,.69.49l6.5,11.25Z" fill="#0504a5"/>
      <path id="Path_1142" data-name="Path 1142" d="M36.28,41H33v4.02c.99.02,1.97.07,2.93.15Z" fill="#0504a5"/>
      <path id="Path_1143" data-name="Path 1143" d="M42.41,53.32a18.192,18.192,0,0,1-3.08,3.61,25.772,25.772,0,0,0,4.22-1.64Z" fill="#0504a5"/>
      <path id="Path_1144" data-name="Path 1144" d="M33,57.91c3.06-.42,5.96-2.71,8.28-6.55l-.56-.96-3.78,3.11a1,1,0,0,1-1.1.12.986.986,0,0,1-.53-.97l.45-5.5c-.9-.07-1.82-.12-2.76-.14Z" fill="#0504a5"/>
      <path id="Path_1145" data-name="Path 1145" d="M33,23H45.11a38.426,38.426,0,0,0-1.51-5.45A46.106,46.106,0,0,1,33,18.97Z" fill="#0504a5"/>
      <path id="Path_1146" data-name="Path 1146" d="M33,6.07v10.9a44.34,44.34,0,0,0,9.86-1.29C40.41,10.11,36.81,6.6,33,6.07Z" fill="#0504a5"/>
      <path id="Path_1147" data-name="Path 1147" d="M56.39,23a26.123,26.123,0,0,0-5.06-8.41,31.855,31.855,0,0,1-5.8,2.42A39.743,39.743,0,0,1,47.14,23Z" fill="#0504a5"/>
      <path id="Path_1148" data-name="Path 1148" d="M16.86,23a39.743,39.743,0,0,1,1.61-5.99,32.155,32.155,0,0,1-5.8-2.42A26.123,26.123,0,0,0,7.61,23Z" fill="#0504a5"/>
      <path id="Path_1149" data-name="Path 1149" d="M39.35,7.06a22.769,22.769,0,0,1,5.45,8.08,30.4,30.4,0,0,0,5.08-2.04A25.876,25.876,0,0,0,39.35,7.06Z" fill="#0504a5"/>
      <path id="Path_1150" data-name="Path 1150" d="M24.65,7.06A25.876,25.876,0,0,0,14.12,13.1a30.754,30.754,0,0,0,5.08,2.04,22.769,22.769,0,0,1,5.45-8.08Z" fill="#0504a5"/>
      <path id="Path_1151" data-name="Path 1151" d="M31,6.07c-3.81.53-7.41,4.04-9.86,9.61A44.34,44.34,0,0,0,31,16.97Z" fill="#0504a5"/>
      <path id="Path_1152" data-name="Path 1152" d="M31,41H18.89a38.426,38.426,0,0,0,1.51,5.45A46.106,46.106,0,0,1,31,45.03Z" fill="#0504a5"/>
      <path id="Path_1153" data-name="Path 1153" d="M31,18.97a46.106,46.106,0,0,1-10.6-1.42A38.426,38.426,0,0,0,18.89,23H31Z" fill="#0504a5"/>
    </g>
  </g>
</svg>
